<svg xmlns="http://www.w3.org/2000/svg" style="display: none;" >
  <defs>
    <symbol id="icon-people-default" width="48" height="48" viewBox="0 0 48 48">
      <path fill-rule="evenodd" clip-rule="evenodd" d="M18.7472 5.6542C14.242 5.6542 10.5897 9.30646 10.5897 13.8117C10.5897 18.317 14.242 21.9693 18.7472 21.9693C23.2525 21.9693 26.9048 18.317 26.9048 13.8117C26.9048 9.30646 23.2525 5.6542 18.7472 5.6542ZM7.9897 13.8117C7.9897 7.87052 12.806 3.0542 18.7472 3.0542C24.6885 3.0542 29.5048 7.87052 29.5048 13.8117C29.5048 19.753 24.6885 24.5693 18.7472 24.5693C12.806 24.5693 7.9897 19.753 7.9897 13.8117ZM31.244 4.75874C31.5635 4.11578 32.3437 3.85359 32.9867 4.17311C36.5257 5.93184 38.9623 9.58605 38.9623 13.8117C38.9623 18.0374 36.5257 21.6917 32.9867 23.4504C32.3437 23.7699 31.5635 23.5077 31.244 22.8648C30.9245 22.2218 31.1867 21.4416 31.8296 21.122C34.5188 19.7856 36.3623 17.0128 36.3623 13.8117C36.3623 10.6107 34.5188 7.83786 31.8296 6.50145C31.1867 6.18193 30.9245 5.40169 31.244 4.75874ZM18.7472 30.8743C13.2974 30.8743 8.38964 33.846 5.24198 38.5721C4.8564 39.151 4.63851 39.4828 4.50673 39.7516C4.25615 40.2627 4.57444 40.7725 5.15394 40.8399C5.51862 40.8823 6.01029 40.8844 6.81467 40.8844H30.6798C31.4842 40.8844 31.9759 40.8823 32.3405 40.8399C32.8831 40.7768 33.2661 40.3192 32.9878 39.7516C32.856 39.4828 32.6381 39.151 32.2525 38.5721C29.1048 33.846 24.1971 30.8743 18.7472 30.8743ZM3.078 37.1308C6.63177 31.795 12.2989 28.2743 18.7472 28.2743C25.1955 28.2743 30.8627 31.795 34.4165 37.1308C34.736 37.6104 35.068 38.0885 35.3223 38.6071C35.5695 39.1113 35.7291 39.6508 35.691 40.2865C35.6607 40.791 35.4906 41.2783 35.2762 41.6788C35.0617 42.0793 34.7504 42.491 34.3473 42.7959C33.8119 43.2008 33.2232 43.3548 32.641 43.4225C32.108 43.4845 31.463 43.4844 30.7469 43.4844H6.74756C6.03154 43.4844 5.38648 43.4845 4.85352 43.4225C4.27134 43.3548 3.68257 43.2008 3.14719 42.7959C2.74407 42.491 2.43278 42.0793 2.21832 41.6788C2.00386 41.2783 1.83379 40.791 1.80351 40.2865C1.76535 39.6508 1.92502 39.1113 2.1722 38.6071C2.42645 38.0885 2.75852 37.6104 3.078 37.1308ZM35.4498 30.7496C35.7721 30.1081 36.5535 29.8492 37.1951 30.1715C40.487 31.8252 43.2838 34.4654 45.3141 37.736C45.6556 38.2861 46.0146 38.8263 46.1286 39.5617C46.2493 40.3402 46.0391 41.1107 45.7026 41.7156C45.3662 42.3205 44.8224 42.9054 44.0973 43.2135C43.4028 43.5086 42.6417 43.4844 41.8657 43.4844C41.1477 43.4844 40.5657 42.9024 40.5657 42.1844C40.5657 41.4664 41.1477 40.8844 41.8657 40.8844C42.8621 40.8844 42.9873 40.8602 43.0806 40.8205C43.3581 40.7026 43.6054 40.2579 43.5593 39.9599C43.5421 39.8495 43.5219 39.7787 43.1051 39.1072C41.3057 36.2086 38.8557 33.9154 36.0279 32.4948C35.3864 32.1726 35.1275 31.3912 35.4498 30.7496Z" fill="#E40646"/>
    </symbol>
    <symbol id='icon-people-hover' width="48" height="48" viewBox="0 0 48 48">
        <path d="M0 8C0 3.58172 3.58172 0 8 0H40C44.4183 0 48 3.58172 48 8V40C48 44.4183 44.4183 48 40 48H8C3.58172 48 0 44.4183 0 40V8Z" fill="#E40646"/>
        <path fill-rule="evenodd" clip-rule="evenodd" d="M20.4981 11.7695C17.4945 11.7695 15.0597 14.2043 15.0597 17.2078C15.0597 20.2114 17.4945 22.6462 20.4981 22.6462C23.5016 22.6462 25.9364 20.2114 25.9364 17.2078C25.9364 14.2043 23.5016 11.7695 20.4981 11.7695ZM13.3264 17.2078C13.3264 13.247 16.5372 10.0361 20.4981 10.0361C24.4589 10.0361 27.6698 13.247 27.6698 17.2078C27.6698 21.1687 24.4589 24.3795 20.4981 24.3795C16.5372 24.3795 13.3264 21.1687 13.3264 17.2078ZM28.8292 11.1725C29.0422 10.7439 29.5624 10.5691 29.991 10.7821C32.3504 11.9546 33.9748 14.3907 33.9748 17.2078C33.9748 20.025 32.3504 22.4611 29.991 23.6336C29.5624 23.8466 29.0422 23.6718 28.8292 23.2432C28.6162 22.8145 28.791 22.2944 29.2196 22.0814C31.0124 21.1904 32.2415 19.3419 32.2415 17.2078C32.2415 15.0738 31.0124 13.2252 29.2196 12.3343C28.791 12.1213 28.6162 11.6011 28.8292 11.1725ZM20.4981 28.5829C16.8648 28.5829 13.593 30.564 11.4945 33.7147C11.2375 34.1007 11.0922 34.3219 11.0044 34.5011C10.8373 34.8418 11.0495 35.1817 11.4359 35.2266C11.679 35.2549 12.0068 35.2563 12.543 35.2563H28.4531C28.9894 35.2563 29.3171 35.2549 29.5603 35.2266C29.922 35.1845 30.1773 34.8795 29.9917 34.5011C29.9039 34.3219 29.7586 34.1007 29.5016 33.7147C27.4031 30.564 24.1313 28.5829 20.4981 28.5829ZM10.0519 32.7539C12.4211 29.1966 16.1992 26.8496 20.4981 26.8496C24.7969 26.8496 28.575 29.1966 30.9442 32.7539C31.1572 33.0736 31.3786 33.3923 31.5481 33.7381C31.7129 34.0742 31.8193 34.4339 31.7939 34.8577C31.7737 35.194 31.6603 35.5189 31.5173 35.7859C31.3744 36.0529 31.1668 36.3273 30.8981 36.5306C30.5412 36.8005 30.1487 36.9032 29.7605 36.9483C29.4052 36.9897 28.9752 36.9896 28.4979 36.9896H12.4983C12.0209 36.9896 11.5909 36.9897 11.2356 36.9483C10.8475 36.9032 10.4549 36.8005 10.098 36.5306C9.82928 36.3273 9.62175 36.0529 9.47878 35.7859C9.3358 35.5189 9.22242 35.194 9.20224 34.8577C9.1768 34.4339 9.28324 34.0742 9.44803 33.7381C9.61753 33.3923 9.83891 33.0736 10.0519 32.7539ZM31.6331 28.4998C31.848 28.072 32.3689 27.8995 32.7966 28.1143C34.9912 29.2168 36.8557 30.9769 38.2093 33.1573C38.437 33.5241 38.6763 33.8842 38.7523 34.3745C38.8327 34.8935 38.6926 35.4071 38.4683 35.8104C38.244 36.2136 37.8815 36.6036 37.3981 36.809C36.9351 37.0057 36.4277 36.9896 35.9104 36.9896C35.4317 36.9896 35.0437 36.6016 35.0437 36.1229C35.0437 35.6443 35.4317 35.2563 35.9104 35.2563C36.5746 35.2563 36.6581 35.2401 36.7203 35.2137C36.9053 35.1351 37.0702 34.8386 37.0394 34.6399C37.028 34.5663 37.0145 34.5192 36.7366 34.0715C35.537 32.1391 33.9037 30.6102 32.0185 29.6632C31.5908 29.4484 31.4183 28.9275 31.6331 28.4998Z" fill="white"/>
    </symbol>
    <symbol id="icon-data-default" width="48" height="48" viewBox="0 0 48 48">
      <path fill-rule="evenodd" clip-rule="evenodd" d="M5.30286 8.58661C4.89434 8.95515 4.84811 9.19574 4.84811 9.29202C4.84811 9.3883 4.89434 9.6289 5.30286 9.99744C5.71118 10.3658 6.37509 10.7571 7.30614 11.1124C9.15929 11.8195 11.8072 12.2841 14.7965 12.2841C17.7859 12.2841 20.4337 11.8195 22.2869 11.1124C23.218 10.7571 23.8819 10.3658 24.2902 9.99744C24.6987 9.6289 24.7449 9.3883 24.7449 9.29202C24.7449 9.19574 24.6987 8.95515 24.2902 8.58661C23.8819 8.21824 23.218 7.82692 22.2869 7.47165C20.4337 6.76454 17.7859 6.29995 14.7965 6.29995C11.8072 6.29995 9.15929 6.76454 7.30614 7.47165C6.37509 7.82692 5.71118 8.21824 5.30286 8.58661ZM24.7804 12.814C24.9169 13.3858 25.4312 13.8111 26.0449 13.8111C26.7629 13.8111 27.3449 13.229 27.3449 12.5111V9.29202C27.3449 8.20308 26.7617 7.31456 26.0318 6.6561C25.3017 5.99747 24.3183 5.46393 23.2138 5.04249C20.9958 4.19617 18.0195 3.69995 14.7965 3.69995C11.5735 3.69995 8.59722 4.19617 6.37924 5.04249C5.27473 5.46393 4.29134 5.99747 3.56127 6.6561C2.83139 7.31456 2.24811 8.20308 2.24811 9.29202V35.0445C2.24811 36.1334 2.83139 37.0219 3.56127 37.6804C4.29134 38.339 5.27473 38.8726 6.37924 39.294C8.59722 40.1403 11.5735 40.6365 14.7965 40.6365C15.5145 40.6365 16.0965 40.0545 16.0965 39.3365C16.0965 38.6186 15.5145 38.0365 14.7965 38.0365C11.8072 38.0365 9.15929 37.5719 7.30614 36.8648C6.37509 36.5096 5.71118 36.1182 5.30286 35.7499C4.89434 35.3813 4.84811 35.1407 4.84811 35.0445V30.0023C5.31838 30.2665 5.83405 30.5018 6.37924 30.7099C8.59722 31.5562 11.5735 32.0524 14.7965 32.0524C15.5145 32.0524 16.0965 31.4704 16.0965 30.7524C16.0965 30.0344 15.5145 29.4524 14.7965 29.4524C11.8072 29.4524 9.15929 28.9878 7.30614 28.2807C6.37509 27.9254 5.71118 27.5341 5.30286 27.1657C4.89434 26.7972 4.84811 26.5566 4.84811 26.4603V21.4181C5.21286 21.6231 5.60371 21.8099 6.01247 21.9797C8.03403 22.8193 10.7533 23.3476 13.7293 23.45C14.081 23.4621 14.437 23.4682 14.7965 23.4682C15.5145 23.4682 16.0965 22.8862 16.0965 22.1682C16.0965 21.4503 15.5145 20.8682 14.7965 20.8682C14.4667 20.8682 14.1405 20.8626 13.8186 20.8515C11.0615 20.7567 8.66781 20.2672 7.00974 19.5786C6.17722 19.2328 5.59428 18.8632 5.23992 18.523C4.88875 18.186 4.84811 17.9681 4.84811 17.8762V12.834C5.31838 13.0982 5.83405 13.3335 6.37924 13.5416C8.59722 14.3879 11.5735 14.8841 14.7965 14.8841C18.0195 14.8841 20.9958 14.3879 23.2138 13.5416C23.7727 13.3283 24.3006 13.0863 24.7804 12.814ZM23.7094 22.5358C23.3008 22.9044 23.2546 23.145 23.2546 23.2413C23.2546 23.3375 23.3008 23.5781 23.7094 23.9467C24.1177 24.315 24.7816 24.7064 25.7126 25.0616C27.5658 25.7687 30.2137 26.2333 33.203 26.2333C36.1924 26.2333 38.8402 25.7687 40.6934 25.0616C41.6245 24.7064 42.2883 24.315 42.6967 23.9467C43.1052 23.5781 43.1514 23.3375 43.1514 23.2413C43.1514 23.145 43.1052 22.9044 42.6967 22.5358C42.2883 22.1675 41.6245 21.7762 40.6934 21.4209C38.8402 20.7138 36.1924 20.2492 33.203 20.2492C30.2137 20.2492 27.5658 20.7138 25.7126 21.4209C24.7816 21.7762 24.1177 22.1675 23.7094 22.5358ZM43.1514 26.7832C42.6812 27.0474 42.1655 27.2828 41.6203 27.4908C39.4023 28.3371 36.426 28.8333 33.203 28.8333C29.98 28.8333 27.0037 28.3371 24.7857 27.4908C24.2405 27.2828 23.7249 27.0474 23.2546 26.7832V31.2889C23.2546 31.3852 23.3008 31.6258 23.7094 31.9943C24.1177 32.3627 24.7816 32.754 25.7126 33.1093C27.5658 33.8164 30.2137 34.281 33.203 34.281C36.1924 34.281 38.8402 33.8164 40.6934 33.1093C41.6245 32.754 42.2883 32.3627 42.6967 31.9943C43.1052 31.6258 43.1514 31.3852 43.1514 31.2889V26.7832ZM45.7514 23.2413C45.7514 22.1523 45.1682 21.2638 44.4383 20.6053C43.7082 19.9467 42.7248 19.4132 41.6203 18.9917C39.4023 18.1454 36.426 17.6492 33.203 17.6492C29.98 17.6492 27.0037 18.1454 24.7857 18.9917C23.6812 19.4132 22.6978 19.9467 21.9678 20.6053C21.2379 21.2638 20.6546 22.1523 20.6546 23.2413V39.3365C20.6546 40.4255 21.2379 41.314 21.9678 41.9725C22.6978 42.6311 23.6812 43.1646 24.7857 43.5861C27.0037 44.4324 29.98 44.9286 33.203 44.9286C36.426 44.9286 39.4023 44.4324 41.6203 43.5861C42.7248 43.1646 43.7082 42.6311 44.4383 41.9725C45.1682 41.314 45.7514 40.4255 45.7514 39.3365V23.2413ZM43.1514 34.8309C42.6812 35.0951 42.1655 35.3304 41.6203 35.5384C39.4023 36.3848 36.426 36.881 33.203 36.881C29.98 36.881 27.0037 36.3848 24.7857 35.5384C24.2405 35.3304 23.7249 35.0951 23.2546 34.8309V39.3365C23.2546 39.4328 23.3008 39.6734 23.7094 40.042C24.1177 40.4103 24.7816 40.8016 25.7126 41.1569C27.5658 41.864 30.2137 42.3286 33.203 42.3286C36.1924 42.3286 38.8402 41.864 40.6934 41.1569C41.6245 40.8016 42.2883 40.4103 42.6967 40.042C43.1052 39.6734 43.1514 39.4328 43.1514 39.3365V34.8309Z" fill="#5B57A2"/>
    </symbol>
    <symbol id="icon-data-hover" width="48" height="48" viewBox="0 0 48 48">
        <path d="M0 8C0 3.58172 3.58172 0 8 0H40C44.4183 0 48 3.58172 48 8V40C48 44.4183 44.4183 48 40 48H8C3.58172 48 0 44.4183 0 40V8Z" fill="#5B57A2"/>
        <path fill-rule="evenodd" clip-rule="evenodd" d="M11.5353 13.7244C11.2629 13.9701 11.2321 14.1305 11.2321 14.1947C11.2321 14.2589 11.2629 14.4193 11.5353 14.665C11.8075 14.9106 12.2501 15.1715 12.8708 15.4083C14.1062 15.8797 15.8715 16.1894 17.8644 16.1894C19.8573 16.1894 21.6225 15.8797 22.858 15.4083C23.4787 15.1715 23.9213 14.9106 24.1935 14.665C24.4658 14.4193 24.4967 14.2589 24.4967 14.1947C24.4967 14.1305 24.4658 13.9701 24.1935 13.7244C23.9213 13.4789 23.4787 13.218 22.858 12.9811C21.6225 12.5097 19.8573 12.2 17.8644 12.2C15.8715 12.2 14.1062 12.5097 12.8708 12.9811C12.2501 13.218 11.8075 13.4789 11.5353 13.7244ZM24.5203 16.5427C24.6113 16.9239 24.9542 17.2074 25.3633 17.2074C25.842 17.2074 26.23 16.8194 26.23 16.3408V14.1947C26.23 13.4688 25.8411 12.8764 25.3546 12.4374C24.8678 11.9984 24.2122 11.6427 23.4759 11.3617C21.9973 10.7975 20.013 10.4667 17.8644 10.4667C15.7157 10.4667 13.7315 10.7975 12.2529 11.3617C11.5165 11.6427 10.8609 11.9984 10.3742 12.4374C9.88763 12.8764 9.49878 13.4688 9.49878 14.1947V31.363C9.49878 32.089 9.88763 32.6813 10.3742 33.1203C10.8609 33.5594 11.5165 33.9151 12.2529 34.196C13.7315 34.7603 15.7157 35.0911 17.8644 35.0911C18.343 35.0911 18.7311 34.703 18.7311 34.2244C18.7311 33.7458 18.343 33.3577 17.8644 33.3577C15.8715 33.3577 14.1062 33.048 12.8708 32.5766C12.2501 32.3398 11.8075 32.0789 11.5353 31.8333C11.2629 31.5876 11.2321 31.4272 11.2321 31.363V28.0016C11.5456 28.1777 11.8894 28.3346 12.2529 28.4733C13.7315 29.0375 15.7157 29.3683 17.8644 29.3683C18.343 29.3683 18.7311 28.9803 18.7311 28.5016C18.7311 28.023 18.343 27.635 17.8644 27.635C15.8715 27.635 14.1062 27.3252 12.8708 26.8538C12.2501 26.617 11.8075 26.3561 11.5353 26.1105C11.2629 25.8648 11.2321 25.7044 11.2321 25.6403V22.2788C11.4753 22.4154 11.7358 22.54 12.0084 22.6532C13.3561 23.2129 15.1689 23.5651 17.1529 23.6334C17.3874 23.6414 17.6247 23.6455 17.8644 23.6455C18.343 23.6455 18.7311 23.2575 18.7311 22.7789C18.7311 22.3002 18.343 21.9122 17.8644 21.9122C17.6445 21.9122 17.427 21.9084 17.2124 21.9011C15.3743 21.8378 13.7786 21.5115 12.6732 21.0524C12.1182 20.8219 11.7296 20.5755 11.4933 20.3487C11.2592 20.124 11.2321 19.9788 11.2321 19.9175V16.556C11.5456 16.7322 11.8894 16.8891 12.2529 17.0277C13.7315 17.592 15.7157 17.9228 17.8644 17.9228C20.013 17.9228 21.9973 17.592 23.4759 17.0277C23.8485 16.8856 24.2005 16.7243 24.5203 16.5427ZM23.8063 23.0239C23.5339 23.2696 23.5031 23.43 23.5031 23.4942C23.5031 23.5584 23.5339 23.7188 23.8063 23.9645C24.0785 24.2101 24.5211 24.471 25.1418 24.7078C26.3772 25.1792 28.1425 25.4889 30.1354 25.4889C32.1283 25.4889 33.8935 25.1792 35.129 24.7078C35.7497 24.471 36.1923 24.2101 36.4645 23.9645C36.7368 23.7188 36.7677 23.5584 36.7677 23.4942C36.7677 23.43 36.7368 23.2696 36.4645 23.0239C36.1923 22.7784 35.7497 22.5175 35.129 22.2806C33.8935 21.8092 32.1283 21.4995 30.1354 21.4995C28.1425 21.4995 26.3772 21.8092 25.1418 22.2806C24.5211 22.5175 24.0785 22.7784 23.8063 23.0239ZM36.7677 25.8555C36.4541 26.0317 36.1104 26.1886 35.7469 26.3272C34.2683 26.8915 32.284 27.2223 30.1354 27.2223C27.9867 27.2223 26.0025 26.8915 24.5239 26.3272C24.1604 26.1886 23.8166 26.0317 23.5031 25.8555V28.8593C23.5031 28.9235 23.5339 29.0839 23.8063 29.3296C24.0785 29.5752 24.5211 29.836 25.1418 30.0729C26.3772 30.5443 28.1425 30.854 30.1354 30.854C32.1283 30.854 33.8935 30.5443 35.129 30.0729C35.7497 29.836 36.1923 29.5752 36.4645 29.3296C36.7368 29.0839 36.7677 28.9235 36.7677 28.8593V25.8555ZM38.501 23.4942C38.501 22.7683 38.1121 22.1759 37.6255 21.7369C37.1388 21.2978 36.4832 20.9422 35.7469 20.6612C34.2683 20.097 32.284 19.7662 30.1354 19.7662C27.9867 19.7662 26.0025 20.097 24.5239 20.6612C23.7875 20.9422 23.1319 21.2978 22.6452 21.7369C22.1586 22.1759 21.7698 22.7683 21.7698 23.4942V34.2244C21.7698 34.9504 22.1586 35.5427 22.6452 35.9817C23.1319 36.4208 23.7875 36.7765 24.5239 37.0574C26.0025 37.6216 27.9867 37.9524 30.1354 37.9524C32.284 37.9524 34.2683 37.6216 35.7469 37.0574C36.4832 36.7765 37.1388 36.4208 37.6255 35.9817C38.1121 35.5427 38.501 34.9504 38.501 34.2244V23.4942ZM36.7677 31.2206C36.4541 31.3968 36.1104 31.5536 35.7469 31.6923C34.2683 32.2565 32.284 32.5874 30.1354 32.5874C27.9867 32.5874 26.0025 32.2565 24.5239 31.6923C24.1604 31.5536 23.8166 31.3968 23.5031 31.2206V34.2244C23.5031 34.2886 23.5339 34.449 23.8063 34.6947C24.0785 34.9403 24.5211 35.2011 25.1418 35.438C26.3772 35.9094 28.1425 36.2191 30.1354 36.2191C32.1283 36.2191 33.8935 35.9094 35.129 35.438C35.7497 35.2011 36.1923 34.9403 36.4645 34.6947C36.7368 34.449 36.7677 34.2886 36.7677 34.2244V31.2206Z" fill="white"/>
    </symbol>
    <symbol id="icon-check-default" width="48" height="48" viewBox="0 0 48 48">
      <path fill-rule="evenodd" clip-rule="evenodd" d="M9.3158 1.7002C10.0338 1.7002 10.6158 2.28223 10.6158 3.0002V8.09493H15.6316C16.3496 8.09493 16.9316 8.67696 16.9316 9.39493C16.9316 10.1129 16.3496 10.6949 15.6316 10.6949H10.6158V15.7897C10.6158 16.5076 10.0338 17.0897 9.3158 17.0897C8.59783 17.0897 8.0158 16.5076 8.0158 15.7897V10.6949H3.00001C2.28204 10.6949 1.70001 10.1129 1.70001 9.39493C1.70001 8.67696 2.28204 8.09493 3.00001 8.09493H8.0158V3.0002C8.0158 2.28223 8.59783 1.7002 9.3158 1.7002ZM36.9358 6.51447C35.9486 6.43281 34.6851 6.43177 32.8947 6.43177H24.0526C23.3347 6.43177 22.7526 5.84974 22.7526 5.13177C22.7526 4.4138 23.3347 3.83177 24.0526 3.83177L32.9521 3.83177C34.6721 3.83176 36.0432 3.83175 37.1501 3.92332C38.285 4.0172 39.2568 4.21392 40.1476 4.67344C41.5818 5.41338 42.7449 6.59245 43.4729 8.03898C43.9239 8.93531 44.1173 9.91327 44.2098 11.0587C44.3 12.1775 44.3 13.5642 44.3 15.3073V33.3247C44.3 35.0678 44.3 36.4544 44.2098 37.5732C44.1173 38.7187 43.9239 39.6967 43.4729 40.593C42.7449 42.0395 41.5818 43.2186 40.1476 43.9585C39.2568 44.4181 38.285 44.6148 37.1501 44.7086C36.0432 44.8002 34.6721 44.8002 32.9522 44.8002H15.1531C13.4332 44.8002 12.0621 44.8002 10.9552 44.7086C9.82031 44.6148 8.84847 44.4181 7.95773 43.9585C6.52346 43.2186 5.36035 42.0395 4.63241 40.593C4.18134 39.6967 3.98797 38.7187 3.89553 37.5732C3.80526 36.4545 3.80526 35.0679 3.80528 33.3248L3.80528 24.316C3.80528 23.598 4.38731 23.016 5.10528 23.016C5.82325 23.016 6.40528 23.598 6.40528 24.316V33.2686C6.40528 35.0805 6.40626 36.3622 6.48711 37.3641C6.56677 38.3513 6.71759 38.9526 6.9549 39.4242C7.43799 40.3842 8.20727 41.1617 9.14978 41.6479C9.61006 41.8853 10.198 42.0371 11.1695 42.1175C12.1567 42.1992 13.4202 42.2002 15.2105 42.2002H32.8947C34.6851 42.2002 35.9486 42.1992 36.9358 42.1175C37.9073 42.0371 38.4952 41.8853 38.9555 41.6479C39.898 41.1617 40.6673 40.3842 41.1504 39.4242C41.3877 38.9526 41.5385 38.3513 41.6182 37.3641C41.699 36.3622 41.7 35.0805 41.7 33.2686V15.3634C41.7 13.5515 41.699 12.2698 41.6182 11.2679C41.5385 10.2807 41.3877 9.67932 41.1504 9.20774C40.6673 8.24778 39.898 7.47031 38.9555 6.98408C38.4952 6.74662 37.9073 6.59484 36.9358 6.51447ZM24.0526 12.3581C24.7706 12.3581 25.3526 12.9401 25.3526 13.6581V34.9739C25.3526 35.6918 24.7706 36.2739 24.0526 36.2739C23.3347 36.2739 22.7526 35.6918 22.7526 34.9739V13.6581C22.7526 12.9401 23.3347 12.3581 24.0526 12.3581ZM32.4737 20.8844C33.1917 20.8844 33.7737 21.4664 33.7737 22.1844V34.9739C33.7737 35.6918 33.1917 36.2739 32.4737 36.2739C31.7557 36.2739 31.1737 35.6918 31.1737 34.9739V22.1844C31.1737 21.4664 31.7557 20.8844 32.4737 20.8844ZM15.6316 25.1476C16.3496 25.1476 16.9316 25.7296 16.9316 26.4476V34.9739C16.9316 35.6918 16.3496 36.2739 15.6316 36.2739C14.9136 36.2739 14.3316 35.6918 14.3316 34.9739V26.4476C14.3316 25.7296 14.9136 25.1476 15.6316 25.1476Z" fill="#EF8019"/>
    </symbol>
    <symbol id="icon-check-hover" width="48" height="48" viewBox="0 0 48 48">
      <path d="M0 8C0 3.58172 3.58172 0 8 0H40C44.4183 0 48 3.58172 48 8V40C48 44.4183 44.4183 48 40 48H8C3.58172 48 0 44.4183 0 40V8Z" fill="#EF8019"/>
      <path fill-rule="evenodd" clip-rule="evenodd" d="M14.2105 9.13354C14.6891 9.13354 15.0772 9.52156 15.0772 10.0002V13.3967H18.421C18.8997 13.3967 19.2877 13.7847 19.2877 14.2634C19.2877 14.742 18.8997 15.13 18.421 15.13H15.0772V18.5265C15.0772 19.0052 14.6891 19.3932 14.2105 19.3932C13.7318 19.3932 13.3438 19.0052 13.3438 18.5265V15.13H9.99997C9.52132 15.13 9.1333 14.742 9.1333 14.2634C9.1333 13.7847 9.52132 13.3967 9.99997 13.3967H13.3438V10.0002C13.3438 9.52156 13.7318 9.13354 14.2105 9.13354ZM32.6238 12.3431C31.9657 12.2886 31.1233 12.2879 29.9298 12.2879H24.0351C23.5564 12.2879 23.1684 11.8999 23.1684 11.4213C23.1684 10.9426 23.5564 10.5546 24.0351 10.5546L29.968 10.5546C31.1147 10.5546 32.0288 10.5546 32.7667 10.6156C33.5233 10.6782 34.1712 10.8094 34.765 11.1157C35.7212 11.609 36.4966 12.395 36.9819 13.3594C37.2826 13.957 37.4115 14.6089 37.4731 15.3726C37.5333 16.1184 37.5333 17.0429 37.5333 18.205V30.2165C37.5333 31.3786 37.5333 32.303 37.4731 33.0489C37.4115 33.8125 37.2826 34.4645 36.9819 35.0621C36.4966 36.0264 35.7212 36.8125 34.765 37.3058C34.1712 37.6121 33.5233 37.7433 32.7667 37.8058C32.0288 37.8669 31.1147 37.8669 29.9681 37.8669H18.102C16.9554 37.8669 16.0413 37.8669 15.3034 37.8058C14.5468 37.7433 13.8989 37.6121 13.3051 37.3058C12.3489 36.8125 11.5735 36.0264 11.0882 35.0621C10.7875 34.4645 10.6586 33.8125 10.597 33.0489C10.5368 32.3031 10.5368 31.3787 10.5368 30.2166L10.5368 24.2107C10.5368 23.7321 10.9248 23.3441 11.4035 23.3441C11.8821 23.3441 12.2701 23.7321 12.2701 24.2107V30.1792C12.2701 31.3871 12.2708 32.2415 12.3247 32.9095C12.3778 33.5676 12.4784 33.9685 12.6366 34.2829C12.9586 34.9229 13.4715 35.4412 14.0998 35.7653C14.4067 35.9236 14.7986 36.0248 15.4463 36.0784C16.1044 36.1329 16.9468 36.1335 18.1403 36.1335H29.9298C31.1233 36.1335 31.9657 36.1329 32.6238 36.0784C33.2715 36.0248 33.6634 35.9236 33.9703 35.7653C34.5986 35.4412 35.1115 34.9229 35.4335 34.2829C35.5918 33.9685 35.6923 33.5676 35.7454 32.9095C35.7993 32.2415 35.8 31.3871 35.8 30.1792V18.2423C35.8 17.0344 35.7993 16.1799 35.7454 15.512C35.6923 14.8539 35.5918 14.453 35.4335 14.1386C35.1115 13.4986 34.5986 12.9803 33.9703 12.6561C33.6634 12.4978 33.2715 12.3966 32.6238 12.3431ZM24.0351 16.2388C24.5137 16.2388 24.9017 16.6268 24.9017 17.1055V31.316C24.9017 31.7946 24.5137 32.1827 24.0351 32.1827C23.5564 32.1827 23.1684 31.7946 23.1684 31.316V17.1055C23.1684 16.6268 23.5564 16.2388 24.0351 16.2388ZM29.6491 21.923C30.1277 21.923 30.5158 22.311 30.5158 22.7897V31.316C30.5158 31.7946 30.1277 32.1827 29.6491 32.1827C29.1704 32.1827 28.7824 31.7946 28.7824 31.316V22.7897C28.7824 22.311 29.1704 21.923 29.6491 21.923ZM18.421 24.7651C18.8997 24.7651 19.2877 25.1531 19.2877 25.6318V31.316C19.2877 31.7946 18.8997 32.1827 18.421 32.1827C17.9424 32.1827 17.5544 31.7946 17.5544 31.316V25.6318C17.5544 25.1531 17.9424 24.7651 18.421 24.7651Z" fill="white"/>
    </symbol>
    <symbol id="icon-bag-default" width="48" height="48" viewBox="0 0 48 48">
      <path fill-rule="evenodd" clip-rule="evenodd" d="M14.5482 13.0613V17.8666C14.5482 18.5845 15.1302 19.1666 15.8482 19.1666C16.5662 19.1666 17.1482 18.5845 17.1482 17.8666V13.0524L30.8528 13.0524V17.8666C30.8528 18.5845 31.4348 19.1666 32.1528 19.1666C32.8708 19.1666 33.4528 18.5845 33.4528 17.8666V13.0613C34.0453 13.0701 34.5476 13.0876 34.9892 13.1222C35.8526 13.1899 36.3805 13.3175 36.8018 13.5175C37.6647 13.9271 38.3863 14.5842 38.8747 15.4052C39.1131 15.8059 39.2894 16.3196 39.4374 17.1729C39.5881 18.042 39.6936 19.1571 39.8423 20.7433L41.0652 33.787C41.2411 35.6637 41.3644 36.9903 41.3738 38.0287C41.383 39.0533 41.2769 39.6689 41.0712 40.1478C40.6456 41.1385 39.8996 41.9576 38.953 42.4739C38.4954 42.7234 37.8924 42.8865 36.8714 42.9729C35.8367 43.0605 34.5043 43.0616 32.6194 43.0616H15.3816C13.4967 43.0616 12.1643 43.0605 11.1296 42.9729C10.1086 42.8865 9.50555 42.7234 9.048 42.4739C8.10136 41.9576 7.35545 41.1385 6.92979 40.1478C6.72405 39.6689 6.61798 39.0533 6.62724 38.0287C6.63663 36.9903 6.75991 35.6637 6.93585 33.787L8.15869 20.7433C8.3074 19.1571 8.41287 18.042 8.56359 17.1729C8.71156 16.3196 8.88792 15.8059 9.12631 15.4052C9.61471 14.5842 10.3363 13.9271 11.1992 13.5175C11.6205 13.3175 12.1484 13.1899 13.0118 13.1222C13.4534 13.0876 13.9557 13.0701 14.5482 13.0613ZM33.3652 10.4598C34.0495 10.4687 34.6546 10.488 35.1924 10.5302C36.2129 10.6102 37.0935 10.7779 37.9167 11.1687C39.2457 11.7995 40.357 12.8115 41.1092 14.0758C41.5751 14.859 41.8243 15.7201 41.9992 16.7287C42.1693 17.71 42.2834 18.9267 42.426 20.4474L43.6593 33.6033C43.8285 35.4076 43.9632 36.8438 43.9737 38.0052C43.9844 39.193 43.8697 40.2207 43.4601 41.1742C42.8045 42.6999 41.6558 43.9614 40.1979 44.7565C39.2868 45.2533 38.2743 45.4634 37.0907 45.5636C35.9334 45.6616 34.491 45.6616 32.6789 45.6616H15.3221C13.51 45.6616 12.0676 45.6616 10.9103 45.5636C9.72666 45.4634 8.71416 45.2533 7.80313 44.7565C6.34525 43.9614 5.19649 42.6999 4.54095 41.1742C4.13131 40.2207 4.01661 39.193 4.02735 38.0052C4.03785 36.8438 4.1725 35.4077 4.34165 33.6035L5.57505 20.4473C5.7176 18.9266 5.83165 17.7099 6.00183 16.7287C6.17673 15.7201 6.42592 14.859 6.89183 14.0758C7.644 12.8115 8.75528 11.7995 10.0843 11.1687C10.9075 10.7779 11.7881 10.6102 12.8086 10.5302C13.3464 10.488 13.9515 10.4687 14.6358 10.4598C15.266 5.85097 19.2186 2.30005 24.0005 2.30005C28.7824 2.30005 32.735 5.85097 33.3652 10.4598ZM30.7297 10.4524C30.1223 7.28959 27.3404 4.90005 24.0005 4.90005C20.6606 4.90005 17.8787 7.28959 17.2714 10.4524L30.7297 10.4524Z" fill="#0698D6"/>
    </symbol>
    <symbol id="icon-bag-hover" width="48" height="48" viewBox="0 0 48 48">
      <path d="M0 8C0 3.58172 3.58172 0 8 0H40C44.4183 0 48 3.58172 48 8V40C48 44.4183 44.4183 48 40 48H8C3.58172 48 0 44.4183 0 40V8Z" fill="#0698D6"/>
      <path fill-rule="evenodd" clip-rule="evenodd" d="M17.6987 16.7076V19.9111C17.6987 20.3898 18.0867 20.7778 18.5653 20.7778C19.044 20.7778 19.432 20.3898 19.432 19.9111V16.7016L28.5684 16.7017V19.9111C28.5684 20.3898 28.9564 20.7778 29.4351 20.7778C29.9137 20.7778 30.3017 20.3898 30.3017 19.9111V16.7076C30.6967 16.7135 31.0316 16.7251 31.326 16.7482C31.9016 16.7933 32.2536 16.8784 32.5344 17.0117C33.1097 17.2848 33.5907 17.7229 33.9163 18.2702C34.0753 18.5373 34.1928 18.8798 34.2915 19.4487C34.392 20.0281 34.4623 20.7715 34.5614 21.829L35.3766 30.5248C35.4939 31.7759 35.5761 32.6603 35.5824 33.3526C35.5886 34.0356 35.5178 34.446 35.3807 34.7653C35.0969 35.4257 34.5996 35.9718 33.9685 36.316C33.6635 36.4823 33.2615 36.5911 32.5808 36.6487C31.891 36.7071 31.0028 36.7078 29.7462 36.7078H18.2543C16.9977 36.7078 16.1094 36.7071 15.4196 36.6487C14.7389 36.5911 14.3369 36.4823 14.0319 36.316C13.4008 35.9718 12.9035 35.4257 12.6197 34.7653C12.4826 34.446 12.4119 34.0356 12.418 33.3526C12.4243 32.6603 12.5065 31.7759 12.6238 30.5248L13.439 21.829C13.5381 20.7715 13.6085 20.0281 13.7089 19.4487C13.8076 18.8798 13.9252 18.5373 14.0841 18.2702C14.4097 17.7229 14.8907 17.2848 15.466 17.0117C15.7468 16.8784 16.0988 16.7933 16.6744 16.7482C16.9688 16.7251 17.3037 16.7135 17.6987 16.7076ZM30.2433 14.9733C30.6996 14.9792 31.1029 14.9921 31.4615 15.0202C32.1418 15.0735 32.7289 15.1853 33.2777 15.4459C34.1637 15.8664 34.9045 16.5411 35.406 17.384C35.7166 17.9061 35.8827 18.4802 35.9993 19.1525C36.1128 19.8067 36.1888 20.6179 36.2839 21.6317L37.1061 30.4023C37.2189 31.6051 37.3086 32.5626 37.3156 33.3369C37.3228 34.1288 37.2463 34.8139 36.9732 35.4495C36.5362 36.4667 35.7704 37.3077 34.7985 37.8377C34.1911 38.169 33.5161 38.309 32.727 38.3758C31.9555 38.4411 30.9939 38.4411 29.7858 38.4411H18.2146C17.0065 38.4411 16.0449 38.4411 15.2734 38.3758C14.4843 38.309 13.8093 38.169 13.202 37.8377C12.23 37.3077 11.4642 36.4667 11.0272 35.4495C10.7541 34.8139 10.6776 34.1288 10.6848 33.3369C10.6918 32.5626 10.7815 31.6052 10.8943 30.4024L11.7166 21.6316C11.8116 20.6178 11.8876 19.8067 12.0011 19.1525C12.1177 18.4801 12.2838 17.9061 12.5944 17.384C13.0959 16.5411 13.8367 15.8664 14.7227 15.4459C15.2716 15.1853 15.8586 15.0735 16.5389 15.0202C16.8975 14.9921 17.3009 14.9792 17.7571 14.9733C18.1772 11.9007 20.8123 9.53345 24.0002 9.53345C27.1882 9.53345 29.8232 11.9007 30.2433 14.9733ZM28.4863 14.9683C28.0814 12.8598 26.2268 11.2668 24.0002 11.2668C21.7736 11.2668 19.919 12.8598 19.5141 14.9683L28.4863 14.9683Z" fill="white"/>
    </symbol>
  </defs>
</svg>
