<svg width="32" height="32" viewBox="0 0 32 32" fill="none" xmlns="http://www.w3.org/2000/svg">
<path fill-rule="evenodd" clip-rule="evenodd" d="M17.8224 5.25265C14.0104 4.60654 10.0499 6.03719 7.54878 9.11487C7.33687 9.37564 7.22344 9.52862 7.19662 9.57537C7.21696 9.80982 7.65218 9.91169 7.82034 10.0088L11.4566 12.1082C13.0419 9.57194 14.8628 7.47607 16.6221 6.09175C17.0191 5.77932 17.4205 5.4972 17.8224 5.25265ZM5.84146 7.72741C5.54436 8.093 5.13248 8.55234 5.02326 9.21424C4.8793 10.0868 5.26126 10.9433 5.96863 11.451C6.18546 11.6067 6.45434 11.7605 6.72034 11.914C9.3124 13.4106 11.9045 14.9071 14.4965 16.4036L8.43643 26.9H4.00015C3.39263 26.9 2.90015 27.3925 2.90015 28C2.90015 28.6075 3.39263 29.1 4.00015 29.1H27.9981C28.6057 29.1 29.0981 28.6075 29.0981 28C29.0981 27.3925 28.6057 26.9 27.9981 26.9H10.9768L16.4018 17.5036L24.2124 22.0131C24.467 22.1601 24.7221 22.3075 24.9548 22.4127C25.7482 22.7714 26.6809 22.6739 27.3646 22.113C27.8832 21.6875 28.0751 21.1011 28.2431 20.661C30.4987 14.7544 28.1994 7.91938 22.5486 4.65692C16.8974 1.39374 9.82889 2.82072 5.84146 7.72741ZM21.4486 6.56217C21.2211 6.43079 20.8436 6.36136 20.2235 6.54621C19.6003 6.73198 18.8365 7.14865 17.9825 7.82067C16.4768 9.00546 14.8329 10.8714 13.3631 13.2089L19.7352 16.8878C21.0247 14.4462 21.8186 12.0895 22.0918 10.1932C22.2468 9.11756 22.2258 8.24781 22.0751 7.61522C21.9251 6.98574 21.6762 6.69356 21.4486 6.56217ZM21.6417 17.9886C23.0455 15.3475 23.9501 12.7226 24.2693 10.5069C24.3414 10.0068 24.385 9.51814 24.3958 9.04781C26.8614 12.0261 27.6027 16.1713 26.1879 19.8762C26.1288 20.0309 26.106 20.3775 25.9139 20.4302C25.6905 20.3461 25.4834 20.2066 25.278 20.0879L21.6417 17.9886Z" fill="#78B72A"/>
</svg>
