<svg width="32" height="32" viewBox="0 0 32 32" fill="none" xmlns="http://www.w3.org/2000/svg">
<path d="M12.7657 2.00596C12.4008 1.52026 11.7112 1.42236 11.2256 1.78728C10.7405 2.15171 10.6422 2.8399 11.0054 3.32548C11.139 3.50722 11.2568 3.7022 11.3622 3.90134C11.5685 4.29086 11.6591 4.60248 11.6522 4.75676C11.6928 4.7954 11.3871 5.04099 11.3394 5.08179C11.0323 5.34924 10.3998 5.89994 10.355 6.89617C10.3201 7.67455 10.6618 8.43263 10.8984 8.87965C11.0572 9.17963 11.2353 9.47382 11.4393 9.74569C11.8042 10.2314 12.4938 10.3293 12.9795 9.96436C13.4645 9.59993 13.5627 8.91162 13.1995 8.42603C13.0674 8.24286 12.9484 8.04985 12.8428 7.8503C12.6366 7.46078 12.5459 7.14916 12.5528 6.99488C12.519 6.96271 12.8264 6.70415 12.8656 6.66985C13.1728 6.40241 13.8052 5.8517 13.85 4.85547C13.885 4.07709 13.5432 3.31901 13.3066 2.87199C13.1478 2.57201 12.9697 2.27784 12.7657 2.00596Z" fill="#EF8019"/>
<path fill-rule="evenodd" clip-rule="evenodd" d="M2.65063 12.9359C2.65063 12.3284 3.14312 11.8359 3.75064 11.8359H24.9307C26.3983 11.8359 27.8252 12.267 28.9626 13.2211C30.0446 14.1285 30.7005 15.4051 30.7005 16.7869V17.7496C30.7005 19.1313 30.0446 20.4079 28.9626 21.3154C27.9665 22.1509 26.6723 22.6264 25.333 22.6925C25.0385 23.5065 24.6531 24.2891 24.1813 25.0248C23.6584 25.8402 23.0389 26.5833 22.3395 27.2396H24.931C25.5385 27.2396 26.031 27.732 26.031 28.3396C26.031 28.9471 25.5385 29.4396 24.931 29.4396C17.8706 29.4396 10.8113 29.4396 3.75088 29.4396C3.14337 29.4396 2.65088 28.9471 2.65088 28.3396C2.65088 27.732 3.14337 27.2396 3.75088 27.2396H6.34189C5.64246 26.5833 5.02299 25.8402 4.50008 25.0248C3.29211 23.141 2.65022 20.9501 2.65063 18.7123V12.9359ZM22.3293 23.8372C21.3909 25.3007 20.0693 26.477 18.5102 27.2396H10.1712C8.61212 26.477 7.2905 25.3007 6.35202 23.8372C5.37136 22.3079 4.85026 20.5291 4.85064 18.7123V14.0359H23.8307V18.7126C23.8311 20.4882 23.29 22.3391 22.3293 23.8372ZM25.9076 20.4068C26.5378 20.273 27.1058 20.0014 27.5489 19.6298C28.189 19.0929 28.5005 18.4105 28.5005 17.7496V16.7869C28.5005 16.126 28.189 15.4435 27.5489 14.9066C27.1348 14.5594 26.6117 14.2995 26.0307 14.1577V18.7121C26.0308 19.2815 25.9894 19.8478 25.9076 20.4068Z" fill="#EF8019"/>
<path d="M16.3603 1.78728C16.846 1.42236 17.5356 1.52026 17.9005 2.00596C18.1044 2.27784 18.2825 2.57201 18.4413 2.87199C18.678 3.31901 19.0197 4.07709 18.9848 4.85547C18.94 5.8517 18.3075 6.40241 18.0004 6.66985C17.9665 6.69997 17.6563 6.96515 17.6876 6.99488C17.6806 7.14916 17.7713 7.46078 17.9775 7.8503C18.0832 8.04985 18.2022 8.24286 18.3343 8.42603C18.6975 8.91162 18.5993 9.59993 18.1142 9.96436C17.6285 10.3293 16.939 10.2314 16.574 9.74569C16.3701 9.47382 16.192 9.17963 16.0332 8.87965C15.7965 8.43263 15.4548 7.67455 15.4898 6.89617C15.5345 5.89994 16.167 5.34924 16.4742 5.08179C16.5355 5.02844 16.8239 4.79191 16.787 4.75676C16.7939 4.60248 16.7032 4.29086 16.497 3.90134C16.3916 3.7022 16.2738 3.50722 16.1402 3.32548C15.777 2.8399 15.8753 2.15171 16.3603 1.78728Z" fill="#EF8019"/>
</svg>
