<svg width="48" height="48" viewBox="0 0 48 48" fill="none" xmlns="http://www.w3.org/2000/svg">
<path fill-rule="evenodd" clip-rule="evenodd" d="M35.022 3.80889C35.5773 4.02836 35.9117 4.59786 35.8327 5.1897L33.9198 19.5364L42.9193 19.5364C43.7895 19.5363 44.8034 19.4633 45.5338 20.027C46.0872 20.4541 46.4222 21.1051 46.4481 21.8037C46.4823 22.7258 45.8335 23.5084 45.3276 24.2165L31.3837 43.7379C31.0367 44.2238 30.4033 44.4108 29.848 44.1913C29.2928 43.9718 28.9584 43.4024 29.0373 42.8105L30.9502 28.4638L21.9508 28.4638C21.0805 28.4639 20.0667 28.537 19.3362 27.9732C18.7828 27.5461 18.4478 26.8951 18.4219 26.1965C18.3877 25.2745 19.0364 24.4919 19.5423 23.7838L33.4863 4.26227C33.8333 3.77641 34.4667 3.58942 35.022 3.80889ZM32.565 10.0253L21.6892 25.2514C21.5073 25.506 21.368 25.7018 21.2605 25.8593C21.4512 25.8634 21.6914 25.8638 22.0044 25.8638H32.435C32.8097 25.8638 33.1663 26.0255 33.4131 26.3075C33.66 26.5894 33.7731 26.9642 33.7236 27.3356L32.305 37.9749L43.1808 22.7488C43.3627 22.4942 43.502 22.2985 43.6095 22.1409C43.4188 22.1368 43.1786 22.1364 42.8656 22.1364H32.435C32.0603 22.1364 31.7038 21.9747 31.4569 21.6927C31.2101 21.4108 31.0969 21.036 31.1464 20.6646L32.565 10.0253ZM5.82539 12.3999C5.82539 11.6819 6.40742 11.0999 7.12539 11.0999H17.6711C18.389 11.0999 18.9711 11.6819 18.9711 12.3999C18.9711 13.1178 18.389 13.6999 17.6711 13.6999H7.12539C6.40742 13.6999 5.82539 13.1178 5.82539 12.3999ZM1.60712 24.0001C1.60712 23.2821 2.18915 22.7001 2.90712 22.7001H12.3982C13.1162 22.7001 13.6982 23.2821 13.6982 24.0001C13.6982 24.7181 13.1162 25.3001 12.3982 25.3001H2.90712C2.18915 25.3001 1.60712 24.7181 1.60712 24.0001ZM4.77082 35.6003C4.77082 34.8824 5.35285 34.3004 6.07082 34.3004H17.6711C18.389 34.3004 18.9711 34.8824 18.9711 35.6003C18.9711 36.3183 18.389 36.9003 17.6711 36.9003H6.07082C5.35285 36.9003 4.77082 36.3183 4.77082 35.6003Z" fill="#EF8019"/>
</svg>
