<svg width="48" height="48" viewBox="0 0 48 48" fill="none" xmlns="http://www.w3.org/2000/svg">
<path fill-rule="evenodd" clip-rule="evenodd" d="M23.9997 15.6759C19.4026 15.6759 15.676 19.4025 15.676 23.9995C15.676 28.5966 19.4026 32.3232 23.9997 32.3232C28.5967 32.3232 32.3233 28.5966 32.3233 23.9995C32.3233 19.4025 28.5967 15.6759 23.9997 15.6759ZM18.276 23.9995C18.276 20.8385 20.8386 18.2759 23.9997 18.2759C27.1607 18.2759 29.7233 20.8385 29.7233 23.9995C29.7233 27.1606 27.1607 29.7232 23.9997 29.7232C20.8386 29.7232 18.276 27.1606 18.276 23.9995Z" fill="#0698D6"/>
<path fill-rule="evenodd" clip-rule="evenodd" d="M19.4049 2.73528C19.0835 2.47848 18.6596 2.38895 18.2618 2.49388C16.3709 2.9927 14.5546 3.74061 12.8607 4.71797C12.5031 4.92436 12.2647 5.28843 12.2186 5.69882L11.6446 10.8075C11.3626 11.0722 11.0891 11.3456 10.8245 11.6276L5.71372 12.2016C5.30397 12.2477 4.94035 12.4853 4.73376 12.8422C3.75189 14.5382 2.99962 16.3571 2.4967 18.2512C2.39097 18.6494 2.48024 19.0741 2.73732 19.396L5.94609 23.4142C5.93388 23.801 5.93388 24.188 5.94609 24.5748L2.73546 28.5929C2.47807 28.915 2.38876 29.3401 2.49476 29.7386C2.99864 31.6327 3.75257 33.4513 4.73666 35.1463C4.94231 35.5005 5.30286 35.7371 5.70967 35.7848L10.8263 36.3841C11.0916 36.667 11.3659 36.9414 11.6487 37.2068L12.2228 42.3176C12.2689 42.7282 12.5074 43.0924 12.8654 43.2987C14.562 44.2767 16.3809 45.0253 18.2744 45.5247C18.672 45.6295 19.0958 45.5401 19.4172 45.2835L23.4353 42.0747C23.8221 42.0869 24.2092 42.0869 24.5959 42.0747L28.614 45.2853C28.9361 45.5427 29.3612 45.6321 29.7597 45.5261C31.6538 45.0222 33.4724 44.2682 35.1674 43.2841C35.5235 43.0774 35.7606 42.7142 35.8066 42.305L36.3806 37.1963C36.6626 36.9317 36.9361 36.6582 37.2007 36.3763L42.3115 35.8022C42.7221 35.7561 43.0863 35.5176 43.2926 35.1596C44.2706 33.463 45.0191 31.6441 45.5186 29.7506C45.6234 29.353 45.534 28.9292 45.2774 28.6078L42.0686 24.5897C42.0808 24.2029 42.0808 23.8158 42.0686 23.4291L45.2792 19.411C45.5366 19.0889 45.6259 18.6637 45.5199 18.2653C45.0161 16.3712 44.2621 14.5526 43.278 12.8576C43.0713 12.5015 42.7081 12.2644 42.2989 12.2184L37.1902 11.6444C36.9256 11.3624 36.6521 11.0889 36.3702 10.8243L35.7961 5.71354C35.7501 5.30379 35.5124 4.94016 35.1556 4.73358C33.4596 3.75171 31.6407 2.99944 29.7466 2.49651C29.3484 2.39079 28.9236 2.48006 28.6017 2.73714L24.5836 5.94591C24.1968 5.9337 23.8097 5.9337 23.423 5.9459L19.4049 2.73528ZM14.1738 11.5833L14.7275 6.6551C15.8676 6.04698 17.0654 5.55385 18.3031 5.183L22.1818 8.28221C22.4328 8.48281 22.7493 8.58332 23.0701 8.56434C23.6916 8.52756 24.3147 8.52756 24.9362 8.56434C25.2569 8.58331 25.5732 8.4829 25.8243 8.28244L29.7019 5.18585C30.9432 5.55987 32.1442 6.05654 33.287 6.66851L33.8409 11.6C33.8768 11.9192 34.0296 12.2139 34.2698 12.4272C34.7348 12.8398 35.1747 13.2798 35.5874 13.7447C35.8006 13.9849 36.0952 14.1377 36.4145 14.1736L41.3449 14.7276C41.9581 15.8695 42.4557 17.0698 42.8304 18.3106L39.7323 22.1879C39.5317 22.4389 39.4312 22.7554 39.4502 23.0762C39.487 23.6977 39.487 24.3208 39.4502 24.9423C39.4312 25.263 39.5316 25.5794 39.7321 25.8304L42.8295 29.7091C42.458 30.9498 41.9641 32.1504 41.3549 33.2933L36.425 33.847C36.1058 33.8829 35.8111 34.0357 35.5978 34.2759C35.1852 34.7409 34.7452 35.1808 34.2803 35.5935C34.0401 35.8067 33.8873 36.1014 33.8514 36.4206L33.2974 41.351C32.1555 41.9642 30.9552 42.4618 29.7144 42.8365L25.8371 39.7384C25.5861 39.5378 25.2696 39.4373 24.9488 39.4563C24.3273 39.4931 23.7042 39.4931 23.0826 39.4563C22.762 39.4373 22.4456 39.5377 22.1946 39.7382L18.3159 42.8356C17.0752 42.4642 15.8746 41.9702 14.7317 41.361L14.178 36.4311C14.1421 36.1119 13.9893 35.8172 13.7491 35.604C13.2841 35.1913 12.8442 34.7513 12.4315 34.2864C12.2197 34.0478 11.9275 33.8953 11.6105 33.8582L6.67163 33.2797C6.0576 32.1367 5.55933 30.9353 5.18427 29.6933L8.28239 25.816C8.483 25.5649 8.5835 25.2485 8.56452 24.9277C8.52774 24.3062 8.52774 23.683 8.56452 23.0615C8.5835 22.7408 8.48308 22.4245 8.28263 22.1735L5.18603 18.2958C5.56005 17.0546 6.05672 15.8536 6.66869 14.7107L11.6002 14.1568C11.9194 14.121 12.2141 13.9682 12.4273 13.7279C12.84 13.263 13.2799 12.823 13.7449 12.4104C13.9851 12.1972 14.1379 11.9025 14.1738 11.5833Z" fill="#0698D6"/>
</svg>
