<svg width="32" height="32" viewBox="0 0 32 32" fill="none" xmlns="http://www.w3.org/2000/svg">
<path fill-rule="evenodd" clip-rule="evenodd" d="M2.90002 4.99193C2.90002 5.59952 2.9405 6.44601 3.10226 7.41424C3.42389 9.33936 4.23961 11.8271 6.2559 13.8384C8.36559 15.943 10.9861 16.2626 12.9648 16.0981C13.7047 16.0366 14.3724 15.9069 14.9187 15.7687V18.5334H9.42904C8.86195 18.5334 8.38308 18.9791 8.33285 19.5417C8.30085 19.9124 8.28415 20.2847 8.27334 20.6566C8.25386 21.3272 8.25355 22.247 8.33256 23.2323C8.41103 24.2108 8.57068 25.2939 8.88786 26.2747C9.19861 27.2357 9.70389 28.2347 10.5673 28.8807C10.7575 29.023 10.9887 29.0999 11.2262 29.0999H20.8112C21.0488 29.0999 21.28 29.023 21.4702 28.8807C22.3336 28.2347 22.8389 27.2357 23.1496 26.2747C23.4668 25.2939 23.6264 24.2108 23.7049 23.2323C23.7839 22.247 23.7836 21.3272 23.7641 20.6566C23.7533 20.2822 23.7379 19.9067 23.7039 19.5335C23.6523 18.9671 23.1773 18.5334 22.6084 18.5334H17.1187V17.2667C17.631 17.301 18.2714 17.3235 18.9843 17.3033C20.7319 17.2537 23.0526 16.9443 24.9706 15.7963C27.0204 14.5694 28.0202 12.2802 28.5203 10.5141C28.7781 9.60405 28.9217 8.76647 29.0013 8.15736C29.0455 7.81907 29.0823 7.47877 29.0987 7.13785C29.1232 6.57713 28.7131 6.07406 28.1552 5.99456C27.2864 5.87757 26.4049 5.83417 25.5288 5.83417C24.0566 5.83417 22.0943 5.98485 20.4035 6.65953C18.7213 7.33074 17.4189 8.61208 16.544 9.69334C15.9303 7.63908 14.8924 5.48609 12.9892 4.3469C11.2449 3.30285 8.91471 2.99817 7.15529 2.92185C6.25167 2.88266 5.44857 2.90227 4.87097 2.93156C4.55227 2.94773 4.23375 2.96959 3.91629 3.00221C3.40494 3.05889 3.00109 3.46327 2.94414 3.97459C2.90722 4.31166 2.90003 4.65322 2.90002 4.99193ZM5.10076 5.12306C5.1064 5.62469 5.14578 6.29512 5.27219 7.05171C5.54962 8.71227 6.23154 10.7067 7.80964 12.2809C9.29432 13.762 11.1668 14.04 12.7825 13.9057C13.6484 13.8337 14.4068 13.6436 14.9187 13.4837C14.9187 13.1217 14.9519 12.747 14.8989 12.3881C14.8384 11.978 14.6654 10.9866 14.3014 9.89734C13.7955 8.38315 13.0025 6.91885 11.8593 6.2346C10.6083 5.48583 8.74509 5.19288 7.05995 5.11979C6.30091 5.08686 5.6164 5.09971 5.10076 5.12306ZM17.1187 15.0611C17.5948 15.0971 18.2198 15.1241 18.9218 15.1042C20.5282 15.0586 22.401 14.7704 23.8407 13.9086C25.1485 13.1258 25.9459 11.5306 26.4036 9.91465C26.598 9.22824 26.7184 8.58287 26.792 8.07439C26.4335 8.0517 26.0029 8.03417 25.5288 8.03417C24.1554 8.03417 22.5233 8.18231 21.2188 8.70286C19.982 9.1964 18.9293 10.2184 18.1559 11.2004C17.7774 11.6809 17.4843 12.1282 17.2868 12.4537C17.2189 12.5655 17.1628 12.6623 17.1187 12.7403V15.0611ZM10.472 20.7334C10.4545 21.3501 10.4553 22.1803 10.5255 23.0564C10.5968 23.9454 10.7367 24.8419 10.9811 25.5978C11.1727 26.1902 11.4036 26.6188 11.6511 26.8999H20.3864C20.6339 26.6188 20.8648 26.1902 21.0563 25.5978C21.3008 24.8419 21.4407 23.9454 21.512 23.0564C21.5822 22.1803 21.583 21.3501 21.5654 20.7334H10.472Z" fill="#0698D6"/>
</svg>
