<svg width="42" height="42" viewBox="0 0 42 42" fill="none" xmlns="http://www.w3.org/2000/svg">
<path fill-rule="evenodd" clip-rule="evenodd" d="M8.84125 27.6944C7.47509 27.6522 6.14143 28.1157 5.09596 28.9961C4.16748 29.776 3.46168 30.8741 2.92186 31.9793C2.37477 33.0993 1.95435 34.3184 1.63737 35.4266C1.3192 36.5389 1.09757 37.5668 0.955411 38.3155C0.878534 38.7203 0.808226 39.1266 0.75001 39.5346C0.693861 39.9413 0.823189 40.3621 1.11544 40.6543C1.40187 40.9408 1.80544 41.0773 2.20694 41.0236C3.60256 40.8354 4.99086 40.5192 6.34322 40.1324C7.45138 39.8154 8.67048 39.395 9.79053 38.8479C10.8951 38.3084 11.9926 37.6031 12.7724 36.6753C14.5603 34.5585 14.5737 31.2732 12.5162 29.2418C11.5377 28.2918 10.2025 27.7365 8.84125 27.6944ZM3.64596 38.1238C4.22947 37.9998 4.91168 37.8376 5.62819 37.6327C6.649 37.3407 7.71233 36.9694 8.6494 36.5117C9.42644 36.1322 10.2211 35.6681 10.7854 34.9985C11.7609 33.8444 11.7108 32.1089 10.6973 31.0997C10.1726 30.6026 9.4835 30.3156 8.76088 30.2932C8.03455 30.2707 7.32552 30.5173 6.76986 30.9856C6.10061 31.5485 5.637 32.3446 5.25806 33.1204C4.80035 34.0575 4.42911 35.1208 4.13711 36.1416C3.93216 36.8581 3.77001 37.5403 3.64596 38.1238Z" fill="#E40646"/>
<path fill-rule="evenodd" clip-rule="evenodd" d="M14.1629 22.5223L19.2475 27.6069V36.812C19.2475 37.1974 19.4185 37.563 19.7144 37.81C20.0102 38.057 20.4005 38.16 20.7797 38.0911C21.9346 37.8793 23.0773 37.5448 24.1794 37.145C26.1318 36.4368 28.2339 35.415 29.424 33.6357C30.1148 32.5995 30.4152 31.3583 30.5247 30.1806C30.6352 28.9918 30.5598 27.7701 30.4209 26.6928C30.2658 25.4892 30.0263 24.4245 29.844 23.7134C39.8041 16.6192 41.3347 7.15266 41.3347 1.73511C41.3347 1.02029 40.7575 0.439573 40.0427 0.435139C35.539 0.407205 31.1029 1.53198 27.1566 3.70247C23.5255 5.69959 20.42 8.52095 18.0866 11.9336C17.3754 11.7503 16.2978 11.5062 15.077 11.3489C13.9996 11.21 12.778 11.1346 11.5891 11.2451C10.3794 11.3576 9.15335 11.6649 8.13236 12.3469C6.34265 13.5442 5.25334 15.8575 4.62477 17.5904C4.29472 18.5003 4.05995 19.343 3.90761 19.9572C3.82477 20.2912 3.74828 20.6268 3.68336 20.9648C3.61171 21.3485 3.70827 21.7541 3.9598 22.0554C4.20679 22.3513 4.57234 22.5223 4.95775 22.5223H14.1629ZM16.225 20.9075L20.8654 25.5478C23.2202 24.5983 25.4853 23.4383 27.6328 22.0816C36.5036 16.1266 38.441 8.22317 38.7013 3.06378C30.9948 3.44556 23.794 7.66976 19.701 14.2142C18.363 16.3533 17.1808 18.5702 16.225 20.9075ZM21.8475 35.1637C22.2819 35.0416 22.7768 34.888 23.2928 34.7008C24.9842 34.0873 26.5678 33.2283 27.2612 32.1928C27.6224 31.6506 27.848 30.8849 27.9358 29.94C28.0832 28.3546 27.8586 26.736 27.5214 25.1868C25.6978 26.2416 23.8018 27.1667 21.8475 27.9552V35.1637ZM13.8189 19.9223C14.6176 17.9691 15.5552 16.076 16.6242 14.2574C15.0623 13.9145 13.429 13.6853 11.8298 13.834C10.8849 13.9218 10.1192 14.1474 9.57699 14.5086C8.54151 15.202 7.68247 16.7856 7.06894 18.477C6.88178 18.993 6.72823 19.4879 6.60605 19.9223H13.8189Z" fill="#E40646"/>
</svg>
