<svg width="46" height="46" viewBox="0 0 46 46" fill="none" xmlns="http://www.w3.org/2000/svg">
<path fill-rule="evenodd" clip-rule="evenodd" d="M18.5078 11.9354C17.79 11.9354 17.2081 12.5173 17.2081 13.2351V21.3763H15.6279C14.9101 21.3763 14.3282 21.9582 14.3282 22.676C14.3282 23.3938 14.9101 23.9757 15.6279 23.9757H17.2081V27.5129H15.6279C14.9101 27.5129 14.3282 28.0948 14.3282 28.8126C14.3282 29.5304 14.9101 30.1123 15.6279 30.1123H17.2081V34.0051C17.2081 34.7229 17.79 35.3047 18.5078 35.3047C19.2256 35.3047 19.8075 34.7229 19.8075 34.0051V30.1123H25.2275C25.9453 30.1123 26.5272 29.5304 26.5272 28.8126C26.5272 28.0948 25.9453 27.5129 25.2275 27.5129H19.8075V23.9757H27.1474C30.4955 23.9757 33.2469 21.3007 33.2469 17.9556C33.2469 14.6104 30.4955 11.9354 27.1474 11.9354H18.5078ZM19.8075 21.3763V14.5348H27.1474C29.1009 14.5348 30.6475 16.0867 30.6475 17.9556C30.6475 19.8244 29.1009 21.3763 27.1474 21.3763H19.8075Z" fill="#5B57A2"/>
<path fill-rule="evenodd" clip-rule="evenodd" d="M23 0.700317C10.6842 0.700317 0.700317 10.6842 0.700317 23C0.700317 35.3158 10.6842 45.2997 23 45.2997C35.3158 45.2997 45.2997 35.3158 45.2997 23C45.2997 10.6842 35.3158 0.700317 23 0.700317ZM3.29971 23C3.29971 12.1198 12.1198 3.29971 23 3.29971C33.8802 3.29971 42.7003 12.1198 42.7003 23C42.7003 33.8802 33.8802 42.7003 23 42.7003C12.1198 42.7003 3.29971 33.8802 3.29971 23Z" fill="#5B57A2"/>
</svg>
