<svg width="32" height="32" viewBox="0 0 32 32" fill="none" xmlns="http://www.w3.org/2000/svg">
<path d="M17.0998 17.3333C17.0998 16.7258 16.6073 16.2333 15.9998 16.2333C15.3923 16.2333 14.8998 16.7258 14.8998 17.3333V21.7778C14.8998 22.3853 15.3923 22.8778 15.9998 22.8778C16.6073 22.8778 17.0998 22.3853 17.0998 21.7778V17.3333Z" fill="#E40646"/>
<path d="M23.0122 16.254C23.6083 16.3712 23.9964 16.9495 23.8792 17.5456L23.005 21.99C22.8877 22.5861 22.3094 22.9743 21.7133 22.8571C21.1173 22.7398 20.7291 22.1615 20.8463 21.5654L21.7205 17.121C21.8378 16.5249 22.4161 16.1367 23.0122 16.254Z" fill="#E40646"/>
<path d="M10.279 17.121C10.1618 16.5249 9.5835 16.1367 8.98741 16.254C8.39132 16.3712 8.00313 16.9495 8.12037 17.5456L8.99453 21.99C9.11177 22.5861 9.69004 22.9743 10.2861 22.8571C10.8822 22.7398 11.2704 22.1616 11.1532 21.5655L10.279 17.121Z" fill="#E40646"/>
<path fill-rule="evenodd" clip-rule="evenodd" d="M13.9377 4.63081C14.2861 4.13311 14.165 3.44723 13.6673 3.09884C13.1696 2.75046 12.4838 2.87149 12.1354 3.36919L7.27865 10.3074H6.50046C3.81767 10.3074 1.78991 12.7371 2.26982 15.3766L4.06914 25.2729C4.44089 27.3175 6.22166 28.8037 8.29979 28.8037H23.6992C25.7774 28.8037 27.5581 27.3175 27.9299 25.2729L29.7292 15.3766C30.2091 12.7371 28.1814 10.3074 25.4986 10.3074H24.721L19.8643 3.36919C19.5159 2.87149 18.83 2.75046 18.3323 3.09884C17.8346 3.44723 17.7136 4.13311 18.0619 4.63081L22.0355 10.3074H9.96409L13.9377 4.63081ZM6.50046 12.5074C5.19026 12.5074 4.19996 13.694 4.43433 14.983L6.23366 24.8793C6.41521 25.8779 7.28489 26.6037 8.29979 26.6037H23.6992C24.7141 26.6037 25.5838 25.8779 25.7654 24.8793L27.5647 14.983C27.7991 13.694 26.8088 12.5074 25.4986 12.5074H6.50046Z" fill="#E40646"/>
</svg>
