<svg width="32" height="32" viewBox="0 0 32 32" fill="none" xmlns="http://www.w3.org/2000/svg">
<path fill-rule="evenodd" clip-rule="evenodd" d="M12.9933 3.21606C13.964 3.59802 15.0129 3.81781 16.0568 3.81781C17.2069 3.81781 18.6095 3.61329 19.6873 3.21195C19.9035 3.1478 20.1342 3.15164 20.3481 3.22295L24.3481 4.55629C24.5101 4.61029 24.6573 4.70127 24.7781 4.82202L30.1114 10.1554C30.5137 10.5576 30.5428 11.2003 30.1786 11.6374L26.8453 15.6374C26.5783 15.9577 26.16 16.0936 25.7669 16.0083V28.2665C25.7669 28.874 25.2744 29.3665 24.6669 29.3665H7.33357C6.72605 29.3665 6.23357 28.874 6.23357 28.2665V16.0083C5.84044 16.0936 5.42213 15.9577 5.15519 15.6374L1.82186 11.6374C1.45764 11.2003 1.48679 10.5576 1.88908 10.1554L7.22242 4.82202C7.3546 4.68983 7.51829 4.59352 7.69804 4.54216L12.3647 3.20883C12.5705 3.15004 12.789 3.15257 12.9933 3.21606ZM13.7007 7.34566C14.1728 8.1549 14.8699 8.79992 16.0006 8.79992C17.1312 8.79992 17.8284 8.1549 18.3004 7.34566C18.6042 6.82487 18.7995 6.25621 18.925 5.66907C18.8653 5.68095 18.8043 5.6935 18.7422 5.70691C17.936 5.88097 16.9665 6.0644 16.0568 6.03503C15.2945 6.01043 14.2649 5.81847 13.5938 5.65613C13.3864 5.60598 13.1958 5.55637 13.0299 5.51149C13.1878 6.14872 13.3666 6.77289 13.7007 7.34566ZM6.29848 13.5625L6.94919 13.2332C7.25552 13.08 7.69271 13.1863 7.98405 13.3665C8.27539 13.5467 8.44661 13.9802 8.44661 14.323V27.1784H23.5494V14.3214C23.5494 13.9787 23.6939 13.5702 23.9853 13.39C24.2766 13.2098 24.7608 13.0956 25.0672 13.2489L25.7179 13.5625L27.8425 10.9832L23.4051 6.54581L21.0958 5.79488C21.1287 6.14046 20.996 6.52016 20.8963 6.84636C20.765 7.27603 20.5473 7.8601 20.2007 8.45417C19.5061 9.64493 18.2032 10.9999 16.0006 10.9999C13.7979 10.9999 12.495 9.64493 11.8004 8.45417C11.279 7.56027 11.052 6.70859 10.9628 6.31447C10.9324 6.17975 10.901 6.04237 10.9004 5.90364L8.57812 6.58191L4.1582 10.9989L6.29848 13.5625Z" fill="#5B57A2"/>
</svg>
